<svg height="511pt" viewBox="-31 0 511 511.99965" width="511pt" xmlns="http://www.w3.org/2000/svg"><path d="m402.246094 233.066406h-70.464844c32.179688-20 52.398438-51.214844 52.398438-93.273437 0-79.015625-71.351563-139.792969-159.363282-139.792969-88.011718 0-159.359375 60.777344-159.359375 139.792969 0 42.058593 20.214844 73.273437 52.394531 93.273437h-70.464843c-25.894531 0-46.886719 20.992188-46.886719 46.886719s20.992188 46.882813 46.886719 46.882813h65.003906c10.246094 0 17.375 10.183593 13.871094 19.8125l-37.277344 102.417968c-8.855469 24.332032 3.6875 51.234375 28.019531 60.09375 24.332032 8.855469 51.238282-3.691406 60.097656-28.023437l18.152344-49.882813c4.523438-12.429687 16.339844-20.699218 29.5625-20.699218 13.226563 0 25.039063 8.269531 29.5625 20.699218l18.15625 49.882813c8.855469 24.332031 35.761719 36.878906 60.09375 28.023437 24.332032-8.855468 36.878906-35.761718 28.023438-60.09375l-37.277344-102.417968c-3.503906-9.628907 3.625-19.8125 13.871094-19.8125h65.003906c25.894531 0 46.886719-20.988282 46.886719-46.882813-.003907-25.894531-20.996094-46.886719-46.890625-46.886719zm0 0" fill="#c8a185"/><path d="m158.828125 12.230469c-55.082031 21.585937-93.371094 69.675781-93.371094 127.5625 0 42.058593 20.214844 73.273437 52.394531 93.273437h-70.464843c-25.894531 0-46.886719 20.992188-46.886719 46.886719s20.992188 46.882813 46.886719 46.882813h65.003906c10.246094 0 17.375 10.183593 13.871094 19.8125l-37.277344 102.417968c-8.859375 24.332032 3.6875 51.234375 28.019531 60.09375 24.332032 8.855469 51.238282-3.691406 60.09375-28.023437l18.15625-49.882813c4.523438-12.429687 16.339844-20.699218 29.5625-20.699218 13.226563 0 25.039063 8.273437 29.5625 20.699218l18.15625 49.882813c8.855469 24.332031 35.761719 36.878906 60.09375 28.023437 12.277344-4.46875 21.546875-13.535156 26.589844-24.542968-142.605469-56.109376-260.472656-327.03125-200.390625-472.386719zm0 0" fill="#b59178"/><path d="m170.242188 160.199219c0-14.035157-14.285157-25.414063-31.910157-25.414063s-31.910156 11.378906-31.910156 25.414063c0 14.035156 14.285156 25.410156 31.910156 25.410156s31.910157-11.375 31.910157-25.410156zm0 0" fill="#fff"/><path d="m343.210938 160.199219c0-14.035157-14.285157-25.414063-31.910157-25.414063s-31.910156 11.378906-31.910156 25.414063c0 14.035156 14.285156 25.410156 31.910156 25.410156s31.910157-11.375 31.910157-25.410156zm0 0" fill="#fff"/><path d="m143.667969 137.691406c-4.144531 0-7.5-3.355468-7.5-7.5v-13.695312c0-4.144532 3.355469-7.5 7.5-7.5s7.5 3.355468 7.5 7.5v13.695312c0 4.144532-3.359375 7.5-7.5 7.5zm0 0" fill="#495059"/><path d="m224.816406 163.792969c-12.769531 0-23.121094-10.351563-23.121094-23.121094v-16.808594c0-3.484375 2.828126-6.308593 6.3125-6.308593h33.617188c3.484375 0 6.3125 2.824218 6.3125 6.308593v16.808594c0 12.769531-10.351562 23.121094-23.121094 23.121094zm0 0" fill="#495059"/><path d="m305.964844 137.691406c-4.140625 0-7.5-3.355468-7.5-7.5v-13.695312c0-4.144532 3.359375-7.5 7.5-7.5 4.144531 0 7.5 3.355468 7.5 7.5v13.695312c0 4.144532-3.355469 7.5-7.5 7.5zm0 0" fill="#495059"/><path d="m247.9375 268.558594c0 12.769531-10.351562 23.121094-23.121094 23.121094-12.769531 0-23.121094-10.351563-23.121094-23.121094 0-12.769532 10.351563-23.121094 23.121094-23.121094 12.769532 0 23.121094 10.351562 23.121094 23.121094zm0 0" fill="#f6e06a"/><path d="m247.9375 342.824219c0 12.769531-10.351562 23.121093-23.121094 23.121093-12.769531 0-23.121094-10.351562-23.121094-23.121093s10.351563-23.121094 23.121094-23.121094c12.769532 0 23.121094 10.351563 23.121094 23.121094zm0 0" fill="#ade9f0"/><g fill="#ececed"><path d="m399 334.332031c-1.917969 0-3.839844-.734375-5.304688-2.199219l-11.71875-11.71875c-9.386718-9.386718-9.386718-24.660156 0-34.046874 1.714844-1.714844 2.660157-3.996094 2.660157-6.417969 0-2.425781-.945313-4.703125-2.660157-6.417969-9.386718-9.386719-9.386718-24.660156 0-34.046875l11.71875-11.722656c2.929688-2.929688 7.679688-2.929688 10.609376 0 2.929687 2.929687 2.929687 7.679687 0 10.605469l-11.722657 11.722656c-3.539062 3.539062-3.539062 9.296875 0 12.835937 4.546875 4.546875 7.054688 10.589844 7.054688 17.023438 0 6.429687-2.507813 12.476562-7.054688 17.023437-3.539062 3.539063-3.539062 9.292969 0 12.832032l11.722657 11.722656c2.929687 2.929687 2.929687 7.675781 0 10.605468-1.464844 1.464844-3.386719 2.199219-5.304688 2.199219zm0 0"/><path d="m269.542969 480.398438c-1.0625 0-2.140625-.226563-3.164063-.707032-3.753906-1.75-5.378906-6.210937-3.628906-9.964844l7.007812-15.023437c5.609376-12.03125 19.960938-17.257813 31.992188-11.644531 2.199219 1.023437 4.664062 1.128906 6.941406.300781s4.09375-2.496094 5.121094-4.691406c2.714844-5.828125 7.539062-10.25 13.585938-12.449219 6.039062-2.199219 12.578124-1.914062 18.40625.804688l15.023437 7.003906c3.753906 1.75 5.378906 6.210937 3.625 9.964844-1.75 3.753906-6.210937 5.378906-9.964844 3.628906l-15.023437-7.003906c-2.195313-1.023438-4.660156-1.132813-6.9375-.304688s-4.097656 2.496094-5.121094 4.691406c-2.71875 5.832032-7.542969 10.25-13.585938 12.449219-6.042968 2.199219-12.582031 1.914063-18.410156-.804687-4.535156-2.113282-9.941406-.144532-12.058594 4.390624l-7.007812 15.023438c-1.269531 2.730469-3.976562 4.335938-6.800781 4.335938zm0 0"/><path d="m50.632812 334.332031c-1.917968 0-3.839843-.734375-5.304687-2.199219-2.929687-2.929687-2.929687-7.675781 0-10.605468l11.722656-11.722656c3.539063-3.539063 3.539063-9.292969 0-12.832032-4.546875-4.546875-7.054687-10.59375-7.054687-17.023437 0-6.433594 2.507812-12.476563 7.054687-17.023438 3.539063-3.539062 3.539063-9.296875 0-12.835937l-11.722656-11.71875c-2.925781-2.929688-2.925781-7.679688 0-10.605469 2.933594-2.929687 7.679687-2.929687 10.609375 0l11.71875 11.71875c9.386719 9.386719 9.386719 24.660156 0 34.046875-1.714844 1.714844-2.65625 3.992188-2.65625 6.417969s.941406 4.703125 2.65625 6.417969c9.386719 9.386718 9.386719 24.660156 0 34.046874l-11.71875 11.71875c-1.464844 1.464844-3.386719 2.199219-5.304688 2.199219zm0 0"/><path d="m180.089844 480.398438c-2.824219 0-5.527344-1.605469-6.800782-4.332032l-7.007812-15.023437c-2.113281-4.535157-7.523438-6.503907-12.058594-4.390625-12.03125 5.609375-26.386718.386718-31.996094-11.644532-1.023437-2.199218-2.84375-3.863281-5.121093-4.695312-2.277344-.828125-4.742188-.71875-6.9375.304688l-15.023438 7.003906c-3.753906 1.753906-8.214843.128906-9.964843-3.625-1.753907-3.753906-.128907-8.21875 3.625-9.96875l15.023437-7.003906c5.824219-2.71875 12.363281-3.003907 18.40625-.804688 6.046875 2.199219 10.871094 6.621094 13.585937 12.449219 2.117188 4.535156 7.523438 6.507812 12.0625 4.390625 12.035157-5.609375 26.386719-.386719 31.992188 11.644531l7.007812 15.023437c1.75 3.753907.125 8.214844-3.628906 9.964844-1.023437.480469-2.101562.707032-3.164062.707032zm0 0"/></g><path d="m177.722656 50.742188c0 4.132812-3.347656 7.480468-7.480468 7.480468-4.128907 0-7.476563-3.347656-7.476563-7.480468 0-4.128907 3.347656-7.476563 7.476563-7.476563 4.132812 0 7.480468 3.347656 7.480468 7.476563zm0 0" fill="#b59178"/><path d="m116.207031 266.472656c0 4.128906-3.347656 7.476563-7.476562 7.476563-4.132813 0-7.480469-3.347657-7.480469-7.476563 0-4.132812 3.347656-7.480468 7.480469-7.480468 4.128906 0 7.476562 3.347656 7.476562 7.480468zm0 0" fill="#c8a185"/><path d="m301.820312 385.242188c0 4.128906-3.347656 7.476562-7.476562 7.476562s-7.476562-3.347656-7.476562-7.476562c0-4.128907 3.347656-7.476563 7.476562-7.476563s7.476562 3.347656 7.476562 7.476563zm0 0" fill="#b59178"/><path d="m339.109375 291.675781c0 4.128907-3.347656 7.476563-7.476563 7.476563-4.128906 0-7.476562-3.347656-7.476562-7.476563 0-4.128906 3.347656-7.476562 7.476562-7.476562 4.128907 0 7.476563 3.347656 7.476563 7.476562zm0 0" fill="#b59178"/><path d="m158.621094 414.75c0 4.128906-3.347656 7.476562-7.476563 7.476562-4.128906 0-7.476562-3.347656-7.476562-7.476562s3.347656-7.476562 7.476562-7.476562c4.128907 0 7.476563 3.347656 7.476563 7.476562zm0 0" fill="#c8a185"/><path d="m286.867188 68.707031c0 4.128907-3.347657 7.476563-7.476563 7.476563s-7.476563-3.347656-7.476563-7.476563c0-4.128906 3.347657-7.476562 7.476563-7.476562s7.476563 3.347656 7.476563 7.476562zm0 0" fill="#b59178"/></svg>